<svg width="22" height="22" viewBox="0 0 22 22" fill="none" xmlns="http://www.w3.org/2000/svg">
<path fill-rule="evenodd" clip-rule="evenodd" d="M11.147 2.25903C11.3405 2.60241 11.3143 3.02744 11.08 3.34441C10.3088 4.38771 9.93771 5.67315 10.0342 6.96693C10.1307 8.26071 10.6883 9.47689 11.6057 10.3943C12.5231 11.3117 13.7393 11.8693 15.033 11.9658C16.3268 12.0623 17.6123 11.6912 18.6556 10.92L19.25 11.7242L20.2457 11.8162C20.0841 13.5657 19.4275 15.2329 18.3528 16.6229C17.2782 18.0128 15.8299 19.068 14.1774 19.6649C12.525 20.2617 10.7367 20.3757 9.02188 19.9933C7.30705 19.6109 5.73658 18.7481 4.49424 17.5057C3.25189 16.2634 2.38905 14.6929 2.00669 12.9781C1.62432 11.2633 1.73824 9.475 2.33512 7.82255C2.93199 6.1701 3.98714 4.72182 5.37709 3.64716C6.76703 2.5725 8.4343 1.91592 10.1838 1.75424C10.5763 1.71797 10.9535 1.91564 11.147 2.25903ZM17.7903 13.5972C16.8626 13.9077 15.8752 14.0341 14.8843 13.9602C13.1128 13.8281 11.4476 13.0646 10.1915 11.8085C8.93538 10.5524 8.17183 8.88715 8.03973 7.11566C7.96583 6.12475 8.09226 5.13742 8.40282 4.20968C7.75952 4.46034 7.1521 4.80285 6.60041 5.22939C5.51099 6.07169 4.68399 7.20684 4.21617 8.502C3.74835 9.79716 3.65906 11.1988 3.95875 12.5428C4.25844 13.8869 4.93472 15.1178 5.90845 16.0915C6.88218 17.0653 8.11309 17.7415 9.45715 18.0412C10.8012 18.3409 12.2028 18.2516 13.498 17.7838C14.7931 17.316 15.9283 16.489 16.7706 15.3996C17.1971 14.8479 17.5396 14.2405 17.7903 13.5972Z" fill="#8A92A6"/>
</svg>
