<svg width="22" height="22" viewBox="0 0 22 22" fill="none" xmlns="http://www.w3.org/2000/svg">
<path fill-rule="evenodd" clip-rule="evenodd" d="M15.8321 3.91544C16.0093 3.73831 16.2495 3.63879 16.5 3.63879C16.6241 3.63879 16.7469 3.66323 16.8615 3.71069C16.9761 3.75816 17.0802 3.82774 17.1679 3.91544C17.2556 4.00315 17.3252 4.10728 17.3727 4.22188C17.4201 4.33647 17.4446 4.4593 17.4446 4.58334C17.4446 4.70738 17.4201 4.8302 17.3727 4.9448C17.3252 5.0594 17.2556 5.16352 17.1679 5.25123L5.90544 16.5137L4.12439 16.959L4.56965 15.1779L15.8321 3.91544ZM16.5 1.63879C15.7191 1.63879 14.9701 1.94902 14.4179 2.50123L2.95958 13.9596C2.83142 14.0877 2.7405 14.2483 2.69655 14.4241L1.77988 18.0908C1.69468 18.4316 1.79453 18.7921 2.04291 19.0404C2.29129 19.2888 2.65178 19.3887 2.99256 19.3035L6.65922 18.3868C6.83506 18.3429 6.99564 18.2519 7.12379 18.1238L18.5821 6.66544C18.8556 6.39202 19.0724 6.06742 19.2204 5.71017C19.3684 5.35292 19.4446 4.97002 19.4446 4.58334C19.4446 4.19665 19.3684 3.81376 19.2204 3.45651C19.0724 3.09926 18.8556 2.77466 18.5821 2.50123C18.3087 2.2278 17.9841 2.01091 17.6268 1.86293C17.2696 1.71496 16.8867 1.63879 16.5 1.63879ZM11 17.3333C10.4477 17.3333 10 17.781 10 18.3333C10 18.8856 10.4477 19.3333 11 19.3333H19.25C19.8023 19.3333 20.25 18.8856 20.25 18.3333C20.25 17.781 19.8023 17.3333 19.25 17.3333H11Z" fill="#8A92A6"/>
</svg>
