<svg width="22" height="22" viewBox="0 0 22 22" fill="none" xmlns="http://www.w3.org/2000/svg">
<g clip-path="url(#clip0_22_823)">
<path fill-rule="evenodd" clip-rule="evenodd" d="M11 -0.0833282C11.5523 -0.0833282 12 0.364387 12 0.916672V2.75001C12 3.30229 11.5523 3.75001 11 3.75001C10.4477 3.75001 10 3.30229 10 2.75001V0.916672C10 0.364387 10.4477 -0.0833282 11 -0.0833282ZM11 7.41667C9.021 7.41667 7.41669 9.02098 7.41669 11C7.41669 12.979 9.021 14.5833 11 14.5833C12.979 14.5833 14.5834 12.979 14.5834 11C14.5834 9.02098 12.979 7.41667 11 7.41667ZM5.41669 11C5.41669 7.91642 7.91643 5.41667 11 5.41667C14.0836 5.41667 16.5834 7.91642 16.5834 11C16.5834 14.0836 14.0836 16.5833 11 16.5833C7.91643 16.5833 5.41669 14.0836 5.41669 11ZM12 19.25C12 18.6977 11.5523 18.25 11 18.25C10.4477 18.25 10 18.6977 10 19.25V21.0833C10 21.6356 10.4477 22.0833 11 22.0833C11.5523 22.0833 12 21.6356 12 21.0833V19.25ZM3.16124 3.16123C3.55176 2.7707 4.18493 2.7707 4.57545 3.16123L5.87712 4.46289C6.26764 4.85342 6.26764 5.48658 5.87712 5.87711C5.4866 6.26763 4.85343 6.26763 4.46291 5.87711L3.16124 4.57544C2.77072 4.18491 2.77072 3.55175 3.16124 3.16123ZM17.5371 16.1229C17.1466 15.7324 16.5134 15.7324 16.1229 16.1229C15.7324 16.5134 15.7324 17.1466 16.1229 17.5371L17.4246 18.8388C17.8151 19.2293 18.4483 19.2293 18.8388 18.8388C19.2293 18.4482 19.2293 17.8151 18.8388 17.4246L17.5371 16.1229ZM-0.083313 11C-0.083313 10.4477 0.364402 10 0.916687 10H2.75002C3.3023 10 3.75002 10.4477 3.75002 11C3.75002 11.5523 3.3023 12 2.75002 12H0.916687C0.364402 12 -0.083313 11.5523 -0.083313 11ZM19.25 10C18.6977 10 18.25 10.4477 18.25 11C18.25 11.5523 18.6977 12 19.25 12H21.0833C21.6356 12 22.0833 11.5523 22.0833 11C22.0833 10.4477 21.6356 10 21.0833 10H19.25ZM5.87712 16.1229C6.26764 16.5134 6.26764 17.1466 5.87712 17.5371L4.57545 18.8388C4.18493 19.2293 3.55176 19.2293 3.16124 18.8388C2.77072 18.4482 2.77072 17.8151 3.16124 17.4246L4.46291 16.1229C4.85343 15.7324 5.4866 15.7324 5.87712 16.1229ZM18.8388 4.57544C19.2293 4.18491 19.2293 3.55175 18.8388 3.16122C18.4483 2.7707 17.8151 2.7707 17.4246 3.16123L16.1229 4.46289C15.7324 4.85342 15.7324 5.48658 16.1229 5.87711C16.5134 6.26763 17.1466 6.26763 17.5371 5.87711L18.8388 4.57544Z" fill="#8A92A6"/>
</g>
<defs>
<clipPath id="clip0_22_823">
<rect width="22" height="22" fill="white"/>
</clipPath>
</defs>
</svg>
