<svg width="22" height="22" viewBox="0 0 22 22" fill="none" xmlns="http://www.w3.org/2000/svg">
<path fill-rule="evenodd" clip-rule="evenodd" d="M8.57739 3.07741C8.73367 2.92113 8.94563 2.83333 9.16665 2.83333H12.8333C13.0543 2.83333 13.2663 2.92113 13.4226 3.07741C13.5789 3.23369 13.6666 3.44565 13.6666 3.66666V4.49999H8.33331V3.66666C8.33331 3.44565 8.42111 3.23369 8.57739 3.07741ZM15.6666 3.66666V4.49999H17.4166C17.4177 4.49999 17.4188 4.5 17.4198 4.5H19.25C19.8023 4.5 20.25 4.94772 20.25 5.5C20.25 6.05228 19.8023 6.5 19.25 6.5H18.4166V18.3333C18.4166 19.0848 18.1181 19.8054 17.5868 20.3368C17.0554 20.8682 16.3348 21.1667 15.5833 21.1667H6.41665C5.6652 21.1667 4.94453 20.8682 4.41318 20.3368C3.88182 19.8054 3.58331 19.0848 3.58331 18.3333V6.5H2.75C2.19772 6.5 1.75 6.05228 1.75 5.5C1.75 4.94772 2.19772 4.5 2.75 4.5H4.58011C4.58118 4.5 4.58225 4.49999 4.58331 4.49999H6.33331V3.66666C6.33331 2.91521 6.63183 2.19455 7.16318 1.66319C7.69453 1.13184 8.4152 0.833328 9.16665 0.833328H12.8333C13.5848 0.833328 14.3054 1.13184 14.8368 1.66319C15.3681 2.19455 15.6666 2.91521 15.6666 3.66666ZM5.58331 6.5V18.3333C5.58331 18.5543 5.67111 18.7663 5.82739 18.9226C5.98367 19.0789 6.19563 19.1667 6.41665 19.1667H15.5833C15.8043 19.1667 16.0163 19.0789 16.1726 18.9226C16.3289 18.7663 16.4166 18.5543 16.4166 18.3333V6.5L5.58331 6.5Z" fill="#8A92A6"/>
</svg>
